G04*
G04 #@! TF.GenerationSoftware,Altium Limited,Altium Designer,25.2.1 (25)*
G04*
G04 Layer_Color=16711935*
%FSLAX42Y42*%
%MOMM*%
G71*
G04*
G04 #@! TF.SameCoordinates,54F93AE9-759C-433E-98B8-B0DEF80D149C*
G04*
G04*
G04 #@! TF.FilePolarity,Positive*
G04*
G01*
G75*
%ADD10C,0.20*%
G36*
X8621Y7570D02*
X8621Y7570D01*
Y7569D01*
X8621Y7567D01*
X8621Y7565D01*
X8621Y7563D01*
X8620Y7561D01*
X8620Y7560D01*
X8620Y7559D01*
Y7559D01*
X8619Y7558D01*
X8619Y7558D01*
X8619Y7557D01*
X8618Y7556D01*
X8617Y7555D01*
X8616Y7554D01*
X8615Y7553D01*
X8613Y7552D01*
X8613D01*
X8613Y7551D01*
X8613Y7551D01*
X8612Y7551D01*
X8611Y7550D01*
X8609Y7550D01*
X8607Y7549D01*
X8606Y7549D01*
X8604Y7549D01*
X8604D01*
X8604D01*
X8603D01*
X8603Y7549D01*
X8602D01*
X8601Y7549D01*
X8600Y7549D01*
X8598Y7550D01*
X8596Y7551D01*
X8594Y7552D01*
X8593Y7553D01*
X8592Y7553D01*
X8592Y7553D01*
X8592Y7553D01*
X8592Y7554D01*
X8591Y7554D01*
X8591Y7555D01*
X8591Y7555D01*
X8590Y7556D01*
X8590Y7557D01*
X8589Y7558D01*
X8589Y7559D01*
X8588Y7560D01*
X8588Y7561D01*
X8587Y7562D01*
X8587Y7564D01*
X8587Y7565D01*
X8586Y7567D01*
X8586Y7567D01*
X8586Y7566D01*
X8586Y7566D01*
X8585Y7565D01*
X8584Y7563D01*
X8584Y7563D01*
X8583Y7562D01*
X8583Y7562D01*
X8583Y7561D01*
X8582Y7560D01*
X8581Y7560D01*
X8580Y7558D01*
X8578Y7557D01*
X8577Y7556D01*
X8575Y7555D01*
X8557Y7544D01*
Y7554D01*
X8571Y7563D01*
X8571D01*
X8571Y7563D01*
X8571Y7563D01*
X8572Y7563D01*
X8573Y7564D01*
X8574Y7565D01*
X8575Y7566D01*
X8577Y7567D01*
X8578Y7568D01*
X8579Y7569D01*
X8579Y7569D01*
X8580Y7569D01*
X8580Y7570D01*
X8581Y7570D01*
X8582Y7572D01*
X8583Y7572D01*
X8584Y7573D01*
X8584Y7573D01*
X8584Y7573D01*
X8584Y7574D01*
X8584Y7574D01*
X8585Y7575D01*
X8585Y7576D01*
X8585Y7577D01*
Y7577D01*
X8585Y7577D01*
Y7578D01*
X8585Y7578D01*
X8586Y7579D01*
Y7580D01*
X8586Y7581D01*
Y7591D01*
X8557D01*
Y7600D01*
X8621D01*
Y7570D01*
D02*
G37*
G36*
X8575Y7531D02*
X8575D01*
X8575Y7531D01*
X8575Y7531D01*
X8574Y7531D01*
X8574Y7530D01*
X8573Y7530D01*
X8572Y7530D01*
X8570Y7529D01*
X8568Y7528D01*
X8567Y7527D01*
X8566Y7526D01*
X8565Y7526D01*
X8565Y7526D01*
X8565Y7525D01*
X8564Y7524D01*
X8564Y7523D01*
X8563Y7522D01*
X8563Y7520D01*
X8563Y7518D01*
Y7518D01*
X8563Y7517D01*
X8563Y7516D01*
X8563Y7515D01*
X8564Y7514D01*
X8564Y7512D01*
X8565Y7511D01*
X8566Y7509D01*
X8567Y7509D01*
X8567Y7508D01*
X8568Y7508D01*
X8569Y7507D01*
X8571Y7506D01*
X8572Y7506D01*
X8574Y7505D01*
X8576Y7505D01*
X8576D01*
X8576D01*
X8577D01*
X8577Y7505D01*
X8578Y7505D01*
X8579Y7506D01*
X8581Y7506D01*
X8582Y7507D01*
X8584Y7508D01*
X8585Y7509D01*
X8585Y7509D01*
X8585Y7509D01*
X8586Y7510D01*
X8587Y7511D01*
X8587Y7512D01*
X8588Y7514D01*
X8588Y7516D01*
X8588Y7518D01*
Y7519D01*
X8588Y7519D01*
X8588Y7520D01*
X8588Y7521D01*
X8588Y7522D01*
X8588Y7523D01*
X8595Y7522D01*
Y7522D01*
X8594Y7522D01*
Y7520D01*
X8595Y7519D01*
X8595Y7518D01*
X8595Y7517D01*
X8596Y7515D01*
X8596Y7514D01*
X8597Y7512D01*
Y7512D01*
X8597Y7512D01*
X8598Y7511D01*
X8598Y7511D01*
X8599Y7510D01*
X8600Y7509D01*
X8602Y7509D01*
X8603Y7508D01*
X8604Y7508D01*
X8605D01*
X8605D01*
X8605D01*
X8606D01*
X8607Y7508D01*
X8608Y7508D01*
X8609Y7509D01*
X8610Y7509D01*
X8611Y7510D01*
X8612Y7511D01*
X8612Y7511D01*
X8613Y7512D01*
X8613Y7512D01*
X8614Y7513D01*
X8614Y7514D01*
X8615Y7515D01*
X8615Y7517D01*
X8615Y7519D01*
Y7519D01*
X8615Y7520D01*
X8615Y7521D01*
X8614Y7522D01*
X8614Y7524D01*
X8613Y7525D01*
X8612Y7526D01*
X8612Y7526D01*
X8612Y7527D01*
X8611Y7527D01*
X8610Y7528D01*
X8609Y7528D01*
X8607Y7529D01*
X8606Y7530D01*
X8604Y7530D01*
X8605Y7538D01*
X8605D01*
X8605Y7538D01*
X8606Y7538D01*
X8606Y7538D01*
X8607Y7537D01*
X8608Y7537D01*
X8609Y7537D01*
X8611Y7536D01*
X8613Y7535D01*
X8615Y7533D01*
X8617Y7531D01*
X8617Y7531D01*
X8617Y7531D01*
X8618Y7531D01*
X8618Y7530D01*
X8618Y7530D01*
X8619Y7529D01*
X8619Y7529D01*
X8619Y7528D01*
X8620Y7526D01*
X8621Y7524D01*
X8621Y7521D01*
X8622Y7520D01*
Y7518D01*
X8621Y7517D01*
X8621Y7516D01*
X8621Y7514D01*
X8621Y7512D01*
X8620Y7511D01*
X8619Y7509D01*
Y7509D01*
X8619Y7509D01*
X8619Y7508D01*
X8618Y7508D01*
X8618Y7507D01*
X8617Y7506D01*
X8616Y7504D01*
X8615Y7503D01*
X8613Y7502D01*
X8613Y7502D01*
X8612Y7502D01*
X8612Y7502D01*
X8611Y7501D01*
X8609Y7501D01*
X8608Y7500D01*
X8606Y7500D01*
X8605Y7500D01*
X8605D01*
X8604D01*
X8603Y7500D01*
X8602Y7500D01*
X8601Y7501D01*
X8600Y7501D01*
X8599Y7502D01*
X8597Y7502D01*
X8597Y7502D01*
X8597Y7503D01*
X8596Y7503D01*
X8595Y7504D01*
X8595Y7505D01*
X8594Y7506D01*
X8593Y7507D01*
X8592Y7509D01*
Y7509D01*
X8592Y7509D01*
X8592Y7508D01*
X8592Y7508D01*
X8591Y7507D01*
X8591Y7506D01*
X8590Y7504D01*
X8589Y7503D01*
X8588Y7501D01*
X8587Y7500D01*
X8586Y7500D01*
X8586Y7500D01*
X8585Y7499D01*
X8584Y7498D01*
X8582Y7498D01*
X8580Y7497D01*
X8578Y7497D01*
X8576Y7497D01*
X8576D01*
X8576D01*
X8575D01*
X8575Y7497D01*
X8574Y7497D01*
X8573Y7497D01*
X8572Y7497D01*
X8571Y7498D01*
X8569Y7498D01*
X8568Y7499D01*
X8567Y7499D01*
X8566Y7500D01*
X8564Y7501D01*
X8563Y7502D01*
X8562Y7503D01*
X8562Y7503D01*
X8562Y7503D01*
X8561Y7504D01*
X8561Y7504D01*
X8561Y7505D01*
X8560Y7505D01*
X8560Y7506D01*
X8559Y7507D01*
X8559Y7508D01*
X8558Y7509D01*
X8558Y7511D01*
X8557Y7512D01*
X8557Y7514D01*
X8556Y7515D01*
X8556Y7517D01*
X8556Y7518D01*
Y7519D01*
X8556Y7520D01*
X8556Y7521D01*
X8556Y7521D01*
X8557Y7522D01*
X8557Y7523D01*
X8557Y7526D01*
X8558Y7528D01*
X8559Y7529D01*
X8560Y7530D01*
X8560Y7531D01*
X8561Y7532D01*
X8561Y7533D01*
X8561Y7533D01*
X8562Y7533D01*
X8562Y7533D01*
X8563Y7534D01*
X8563Y7534D01*
X8564Y7535D01*
X8565Y7535D01*
X8566Y7536D01*
X8567Y7536D01*
X8569Y7537D01*
X8571Y7538D01*
X8573Y7539D01*
X8574Y7539D01*
X8575Y7531D01*
D02*
G37*
G36*
X8550Y8628D02*
Y8628D01*
Y8628D01*
Y8627D01*
Y8627D01*
X8550Y8626D01*
Y8625D01*
X8550Y8624D01*
X8550Y8623D01*
X8550Y8620D01*
X8549Y8617D01*
X8549Y8615D01*
X8548Y8614D01*
X8548Y8613D01*
Y8613D01*
X8548Y8612D01*
X8548Y8612D01*
X8548Y8612D01*
X8547Y8611D01*
X8546Y8609D01*
X8545Y8608D01*
X8544Y8606D01*
X8542Y8605D01*
X8540Y8604D01*
X8540D01*
X8540Y8603D01*
X8540Y8603D01*
X8539Y8603D01*
X8539Y8603D01*
X8538Y8602D01*
X8537Y8602D01*
X8536Y8602D01*
X8535Y8601D01*
X8534Y8601D01*
X8533Y8601D01*
X8531Y8601D01*
X8530Y8600D01*
X8529Y8600D01*
X8525Y8600D01*
X8524D01*
X8524Y8600D01*
X8523D01*
X8522Y8600D01*
X8521Y8600D01*
X8520Y8600D01*
X8518Y8601D01*
X8515Y8601D01*
X8513Y8602D01*
X8511Y8603D01*
X8510D01*
X8510Y8603D01*
X8510Y8603D01*
X8510Y8604D01*
X8509Y8604D01*
X8507Y8605D01*
X8506Y8607D01*
X8505Y8608D01*
X8503Y8610D01*
X8502Y8612D01*
Y8612D01*
X8502Y8612D01*
X8502Y8613D01*
X8502Y8613D01*
X8502Y8614D01*
X8502Y8614D01*
X8501Y8615D01*
X8501Y8616D01*
X8501Y8617D01*
X8501Y8619D01*
X8501Y8620D01*
X8500Y8621D01*
X8500Y8623D01*
X8500Y8625D01*
X8500Y8626D01*
Y8628D01*
Y8665D01*
X8509D01*
Y8628D01*
Y8628D01*
Y8628D01*
Y8627D01*
Y8627D01*
X8509Y8626D01*
Y8625D01*
X8509Y8623D01*
X8509Y8621D01*
X8509Y8619D01*
X8510Y8617D01*
X8510Y8617D01*
X8510Y8616D01*
X8510Y8616D01*
X8510Y8615D01*
X8511Y8615D01*
X8511Y8614D01*
X8512Y8613D01*
X8513Y8612D01*
X8514Y8611D01*
X8515Y8610D01*
X8515Y8610D01*
X8516Y8609D01*
X8517Y8609D01*
X8518Y8609D01*
X8519Y8608D01*
X8521Y8608D01*
X8523Y8608D01*
X8525Y8608D01*
X8525D01*
X8526Y8608D01*
X8527D01*
X8528Y8608D01*
X8530Y8608D01*
X8532Y8609D01*
X8534Y8609D01*
X8536Y8610D01*
X8537Y8611D01*
X8538Y8612D01*
X8538Y8612D01*
X8538Y8612D01*
X8538Y8612D01*
X8538Y8613D01*
X8539Y8613D01*
X8539Y8614D01*
X8539Y8615D01*
X8540Y8615D01*
X8540Y8616D01*
X8540Y8618D01*
X8541Y8619D01*
X8541Y8621D01*
X8541Y8622D01*
X8542Y8624D01*
X8542Y8626D01*
Y8628D01*
Y8665D01*
X8550D01*
Y8628D01*
D02*
G37*
G36*
X8591Y8601D02*
X8583D01*
Y8651D01*
X8583Y8651D01*
X8582Y8651D01*
X8582Y8650D01*
X8581Y8649D01*
X8580Y8649D01*
X8579Y8648D01*
X8577Y8647D01*
X8575Y8646D01*
X8575D01*
X8575Y8646D01*
X8575Y8645D01*
X8574Y8645D01*
X8573Y8644D01*
X8571Y8644D01*
X8570Y8643D01*
X8569Y8642D01*
X8567Y8642D01*
Y8649D01*
X8567D01*
X8567Y8649D01*
X8568Y8650D01*
X8568Y8650D01*
X8569Y8650D01*
X8570Y8650D01*
X8571Y8651D01*
X8573Y8652D01*
X8575Y8654D01*
X8577Y8655D01*
X8579Y8657D01*
X8579Y8657D01*
X8579Y8657D01*
X8579Y8657D01*
X8580Y8658D01*
X8580Y8658D01*
X8581Y8660D01*
X8583Y8661D01*
X8584Y8662D01*
X8585Y8664D01*
X8586Y8665D01*
X8591D01*
Y8601D01*
D02*
G37*
%LPC*%
G36*
X8614Y7591D02*
X8593D01*
Y7572D01*
X8593Y7571D01*
X8593Y7570D01*
X8593Y7569D01*
X8593Y7567D01*
X8594Y7566D01*
X8594Y7564D01*
X8594Y7564D01*
X8594Y7564D01*
X8595Y7563D01*
X8595Y7562D01*
X8596Y7562D01*
X8596Y7561D01*
X8597Y7560D01*
X8598Y7559D01*
X8598Y7559D01*
X8598Y7559D01*
X8599Y7559D01*
X8600Y7558D01*
X8601Y7558D01*
X8601Y7558D01*
X8603Y7558D01*
X8604Y7558D01*
X8604D01*
X8604D01*
X8604Y7558D01*
X8605Y7558D01*
X8606Y7558D01*
X8607Y7558D01*
X8609Y7559D01*
X8610Y7560D01*
X8611Y7561D01*
X8611Y7561D01*
X8612Y7562D01*
X8612Y7562D01*
X8613Y7563D01*
X8613Y7565D01*
X8614Y7567D01*
X8614Y7569D01*
X8614Y7571D01*
Y7591D01*
D02*
G37*
%LPD*%
D10*
X9070Y7242D02*
Y7958D01*
X8080Y7242D02*
X9070D01*
X8080D02*
Y7958D01*
X9070D01*
X8143Y8325D02*
Y8875D01*
Y8325D02*
X8857D01*
Y8875D01*
X8143D02*
X8857D01*
M02*
