G04*
G04 #@! TF.GenerationSoftware,Altium Limited,Altium Designer,25.2.1 (25)*
G04*
G04 Layer_Physical_Order=1*
G04 Layer_Color=255*
%FSLAX42Y42*%
%MOMM*%
G71*
G04*
G04 #@! TF.SameCoordinates,54F93AE9-759C-433E-98B8-B0DEF80D149C*
G04*
G04*
G04 #@! TF.FilePolarity,Positive*
G04*
G01*
G75*
%ADD18R,3.30X1.19*%
%ADD19R,0.90X1.35*%
%ADD20R,1.20X1.20*%
%ADD21R,1.10X1.30*%
G04:AMPARAMS|DCode=22|XSize=1.55mm|YSize=0.6mm|CornerRadius=0.05mm|HoleSize=0mm|Usage=FLASHONLY|Rotation=0.000|XOffset=0mm|YOffset=0mm|HoleType=Round|Shape=RoundedRectangle|*
%AMROUNDEDRECTD22*
21,1,1.55,0.50,0,0,0.0*
21,1,1.45,0.60,0,0,0.0*
1,1,0.10,0.72,-0.25*
1,1,0.10,-0.72,-0.25*
1,1,0.10,-0.72,0.25*
1,1,0.10,0.72,0.25*
%
%ADD22ROUNDEDRECTD22*%
%ADD31C,0.38*%
%ADD32C,1.50*%
%ADD33C,1.40*%
%ADD34R,1.40X1.40*%
%ADD35C,1.27*%
%ADD36C,1.30*%
G36*
X10500Y9400D02*
Y7100D01*
X10400Y7000D01*
X7600D01*
X7585Y7025D01*
X7589Y7037D01*
X7411D01*
X7415Y7025D01*
X7400Y7000D01*
X6500D01*
X6400Y7100D01*
Y9400D01*
X6500Y9500D01*
X10400D01*
X10500Y9400D01*
D02*
G37*
%LPC*%
G36*
X7600Y9126D02*
X7400D01*
X7390Y9124D01*
X7382Y9118D01*
X7282Y9018D01*
X7276Y9010D01*
X7274Y9000D01*
Y8896D01*
X7251Y8886D01*
X7218Y8918D01*
X7210Y8924D01*
X7200Y8926D01*
X6900D01*
X6890Y8924D01*
X6882Y8918D01*
X6876Y8910D01*
X6874Y8900D01*
Y8500D01*
X6876Y8490D01*
X6882Y8482D01*
X7057Y8306D01*
X6915Y8141D01*
X6895Y8157D01*
X6895Y8179D01*
Y8237D01*
X6813D01*
Y8155D01*
X6870D01*
X6894Y8155D01*
X6911Y8135D01*
X6860Y8076D01*
X6859Y8076D01*
X6837Y8089D01*
X6813Y8095D01*
X6787D01*
X6763Y8089D01*
X6741Y8076D01*
X6724Y8059D01*
X6711Y8037D01*
X6705Y8013D01*
Y7987D01*
X6709Y7973D01*
X6568Y7832D01*
X6558Y7817D01*
X6555Y7800D01*
Y7500D01*
X6558Y7483D01*
X6568Y7468D01*
X6668Y7368D01*
X6668Y7368D01*
X6683Y7358D01*
X6700Y7355D01*
X7110D01*
Y7315D01*
X7280D01*
Y7416D01*
X7295Y7428D01*
X7320Y7417D01*
Y7413D01*
X7490D01*
Y7459D01*
X7522D01*
X7552Y7429D01*
Y7307D01*
X7693D01*
Y7307D01*
X7707D01*
Y7307D01*
X7831D01*
X7835Y7301D01*
X7968Y7168D01*
X7968Y7168D01*
X7983Y7158D01*
X8000Y7155D01*
X8000Y7155D01*
X10023D01*
X10040Y7158D01*
X10055Y7168D01*
X10251Y7364D01*
X10261Y7379D01*
X10265Y7397D01*
Y7581D01*
X10265Y7581D01*
X10261Y7598D01*
X10251Y7613D01*
X10251Y7613D01*
X10196Y7669D01*
X10200Y7687D01*
Y7713D01*
X10194Y7739D01*
X10180Y7762D01*
X10162Y7780D01*
X10139Y7794D01*
X10113Y7800D01*
X10087D01*
X10061Y7794D01*
X10038Y7780D01*
X10020Y7762D01*
X10006Y7739D01*
X10000Y7713D01*
Y7687D01*
X10006Y7661D01*
X10020Y7638D01*
X10038Y7620D01*
X10061Y7606D01*
X10087Y7600D01*
X10113D01*
X10131Y7604D01*
X10165Y7571D01*
X10163Y7554D01*
X10139Y7540D01*
X10138Y7540D01*
X10113Y7546D01*
X10087D01*
X10061Y7540D01*
X10048Y7532D01*
X10048Y7532D01*
X10033Y7542D01*
X10016Y7545D01*
X9648D01*
Y7593D01*
X9623D01*
Y7622D01*
X9619Y7640D01*
X9610Y7655D01*
X9086Y8178D01*
X9089Y8188D01*
Y8212D01*
X9083Y8234D01*
X9071Y8255D01*
X9055Y8271D01*
X9034Y8283D01*
X9012Y8289D01*
X8988D01*
X8966Y8283D01*
X8945Y8271D01*
X8929Y8255D01*
X8917Y8234D01*
X8911Y8212D01*
Y8188D01*
X8917Y8166D01*
X8929Y8145D01*
X8945Y8129D01*
X8966Y8117D01*
X8988Y8111D01*
X9012D01*
X9022Y8114D01*
X9518Y7618D01*
X9507Y7593D01*
X9482Y7593D01*
X9435D01*
Y7500D01*
Y7407D01*
X9482D01*
X9500Y7407D01*
X9518Y7407D01*
X9648D01*
Y7455D01*
X9997D01*
X10000Y7452D01*
Y7433D01*
X10006Y7407D01*
X10020Y7384D01*
X10038Y7366D01*
X10061Y7352D01*
X10072Y7349D01*
X10080Y7321D01*
X10004Y7245D01*
X9297D01*
X9290Y7271D01*
X9305Y7279D01*
X9321Y7295D01*
X9333Y7316D01*
X9339Y7337D01*
X9161D01*
X9167Y7316D01*
X9179Y7295D01*
X9195Y7279D01*
X9210Y7271D01*
X9203Y7245D01*
X8464D01*
X8445Y7261D01*
Y7431D01*
X8129D01*
X8026Y7534D01*
Y7850D01*
X8024Y7860D01*
X8018Y7868D01*
X7925Y7961D01*
X7943Y7979D01*
X7989Y8024D01*
X7989Y8024D01*
X7998Y8039D01*
X8002Y8056D01*
X8002Y8056D01*
Y8192D01*
X8027Y8198D01*
X8029Y8195D01*
X8045Y8179D01*
X8066Y8167D01*
X8087Y8161D01*
Y8250D01*
Y8339D01*
X8066Y8333D01*
X8045Y8321D01*
X8029Y8305D01*
X8027Y8302D01*
X8002Y8308D01*
Y8633D01*
X8099Y8730D01*
X8129Y8730D01*
X8136Y8710D01*
X8129Y8700D01*
X8127Y8688D01*
Y8639D01*
X8129Y8627D01*
X8136Y8617D01*
X8139Y8614D01*
X8141Y8608D01*
Y8592D01*
X8139Y8586D01*
X8136Y8583D01*
X8129Y8573D01*
X8127Y8561D01*
Y8512D01*
X8129Y8500D01*
X8136Y8490D01*
X8139Y8487D01*
X8141Y8481D01*
Y8465D01*
X8139Y8459D01*
X8136Y8456D01*
X8129Y8446D01*
X8127Y8434D01*
Y8422D01*
X8230D01*
Y8410D01*
X8243D01*
Y8354D01*
X8302D01*
X8314Y8356D01*
X8324Y8363D01*
X8331Y8373D01*
X8333Y8381D01*
X8351Y8392D01*
X8356Y8394D01*
X8548Y8202D01*
Y8173D01*
X8545Y8171D01*
X8529Y8155D01*
X8517Y8134D01*
X8511Y8112D01*
Y8088D01*
X8517Y8066D01*
X8529Y8045D01*
X8545Y8029D01*
X8566Y8017D01*
X8588Y8011D01*
X8612D01*
X8634Y8017D01*
X8655Y8029D01*
X8671Y8045D01*
X8683Y8066D01*
X8689Y8088D01*
Y8112D01*
X8683Y8134D01*
X8671Y8155D01*
X8655Y8171D01*
X8641Y8179D01*
X8642Y8204D01*
X8664Y8213D01*
X8850Y8027D01*
Y7685D01*
X8705D01*
Y7515D01*
X9085D01*
Y7685D01*
X8940D01*
Y8046D01*
X8940Y8046D01*
X8937Y8063D01*
X8927Y8078D01*
X8668Y8337D01*
X8668Y8337D01*
X8684Y8357D01*
X8686Y8356D01*
X8688Y8355D01*
X8698Y8354D01*
X8842D01*
X8854Y8356D01*
X8864Y8363D01*
X8871Y8373D01*
X8873Y8385D01*
Y8434D01*
X8871Y8446D01*
X8864Y8456D01*
X8861Y8459D01*
X8859Y8465D01*
Y8481D01*
X8861Y8487D01*
X8864Y8490D01*
X8871Y8500D01*
X8873Y8512D01*
Y8561D01*
X8871Y8573D01*
X8864Y8583D01*
X8861Y8586D01*
X8859Y8592D01*
Y8608D01*
X8861Y8614D01*
X8864Y8617D01*
X8871Y8627D01*
X8873Y8639D01*
Y8688D01*
X8871Y8700D01*
X8864Y8710D01*
X8861Y8713D01*
X8859Y8719D01*
Y8735D01*
X8861Y8741D01*
X8864Y8744D01*
X8871Y8754D01*
X8873Y8766D01*
Y8815D01*
X8871Y8827D01*
X8864Y8837D01*
X8854Y8844D01*
X8842Y8846D01*
X8698D01*
X8686Y8844D01*
X8676Y8837D01*
X8675Y8836D01*
X8486D01*
X8438Y8883D01*
X8449Y8909D01*
X9333D01*
X9352Y8893D01*
X9352Y8883D01*
Y8813D01*
X9422D01*
Y8800D01*
X9435D01*
Y8707D01*
X9482D01*
X9500Y8707D01*
X9518Y8707D01*
X9584D01*
X9623Y8668D01*
X9638Y8658D01*
X9655Y8655D01*
X10010D01*
X10020Y8638D01*
X10038Y8620D01*
X10061Y8606D01*
X10087Y8600D01*
X10113D01*
X10139Y8606D01*
X10162Y8620D01*
X10180Y8638D01*
X10194Y8661D01*
X10200Y8687D01*
Y8713D01*
X10194Y8739D01*
X10180Y8762D01*
X10162Y8780D01*
X10139Y8794D01*
X10113Y8800D01*
X10087D01*
X10061Y8794D01*
X10038Y8780D01*
X10020Y8762D01*
X10010Y8745D01*
X9674D01*
X9648Y8771D01*
Y8883D01*
X9648Y8893D01*
X9667Y8909D01*
X10010D01*
X10020Y8892D01*
X10038Y8874D01*
X10061Y8860D01*
X10087Y8854D01*
X10113D01*
X10139Y8860D01*
X10162Y8874D01*
X10180Y8892D01*
X10194Y8915D01*
X10200Y8941D01*
Y8967D01*
X10194Y8993D01*
X10180Y9016D01*
X10162Y9034D01*
X10139Y9048D01*
X10113Y9054D01*
X10087D01*
X10061Y9048D01*
X10038Y9034D01*
X10020Y9016D01*
X10010Y8999D01*
X7726D01*
Y9000D01*
X7724Y9010D01*
X7718Y9018D01*
X7618Y9118D01*
X7610Y9124D01*
X7600Y9126D01*
D02*
G37*
G36*
X9410Y8787D02*
X9352D01*
Y8707D01*
X9410D01*
Y8787D01*
D02*
G37*
G36*
X9313Y8639D02*
Y8563D01*
X9389D01*
X9383Y8584D01*
X9371Y8605D01*
X9355Y8621D01*
X9334Y8633D01*
X9313Y8639D01*
D02*
G37*
G36*
X9287D02*
X9266Y8633D01*
X9245Y8621D01*
X9229Y8605D01*
X9217Y8584D01*
X9211Y8563D01*
X9287D01*
Y8639D01*
D02*
G37*
G36*
X9389Y8537D02*
X9313D01*
Y8461D01*
X9334Y8467D01*
X9355Y8479D01*
X9371Y8495D01*
X9383Y8516D01*
X9389Y8537D01*
D02*
G37*
G36*
X9287D02*
X9211D01*
X9217Y8516D01*
X9229Y8495D01*
X9245Y8479D01*
X9266Y8467D01*
X9287Y8461D01*
Y8537D01*
D02*
G37*
G36*
X8217Y8397D02*
X8127D01*
Y8385D01*
X8129Y8373D01*
X8136Y8363D01*
X8146Y8356D01*
X8158Y8354D01*
X8217D01*
Y8397D01*
D02*
G37*
G36*
X6895Y8345D02*
X6813D01*
Y8263D01*
X6895D01*
Y8345D01*
D02*
G37*
G36*
X6787D02*
X6705D01*
Y8263D01*
X6787D01*
Y8345D01*
D02*
G37*
G36*
X8113Y8339D02*
Y8263D01*
X8189D01*
X8183Y8284D01*
X8171Y8305D01*
X8155Y8321D01*
X8134Y8333D01*
X8113Y8339D01*
D02*
G37*
G36*
X8189Y8237D02*
X8113D01*
Y8161D01*
X8134Y8167D01*
X8155Y8179D01*
X8171Y8195D01*
X8183Y8216D01*
X8189Y8237D01*
D02*
G37*
G36*
X6787Y8237D02*
X6705D01*
Y8155D01*
X6787D01*
Y8237D01*
D02*
G37*
G36*
X8445Y7939D02*
X8268D01*
Y7867D01*
X8445D01*
Y7939D01*
D02*
G37*
G36*
X8242D02*
X8065D01*
Y7867D01*
X8242D01*
Y7939D01*
D02*
G37*
G36*
X8445Y7841D02*
X8268D01*
Y7769D01*
X8445D01*
Y7841D01*
D02*
G37*
G36*
X8242D02*
X8065D01*
Y7769D01*
X8242D01*
Y7841D01*
D02*
G37*
G36*
X9410Y7593D02*
X9352D01*
Y7513D01*
X9410D01*
Y7593D01*
D02*
G37*
G36*
Y7487D02*
X9352D01*
Y7407D01*
X9410D01*
Y7487D01*
D02*
G37*
G36*
X9263Y7439D02*
Y7363D01*
X9339D01*
X9333Y7384D01*
X9321Y7405D01*
X9305Y7421D01*
X9284Y7433D01*
X9263Y7439D01*
D02*
G37*
G36*
X9237D02*
X9216Y7433D01*
X9195Y7421D01*
X9179Y7405D01*
X9167Y7384D01*
X9161Y7363D01*
X9237D01*
Y7439D01*
D02*
G37*
G36*
X7490Y7387D02*
X7418D01*
Y7315D01*
X7490D01*
Y7387D01*
D02*
G37*
G36*
X7392D02*
X7320D01*
Y7315D01*
X7392D01*
Y7387D01*
D02*
G37*
G36*
X7513Y7139D02*
Y7063D01*
X7589D01*
X7583Y7084D01*
X7571Y7105D01*
X7555Y7121D01*
X7534Y7133D01*
X7513Y7139D01*
D02*
G37*
G36*
X7487D02*
X7466Y7133D01*
X7445Y7121D01*
X7429Y7105D01*
X7417Y7084D01*
X7411Y7063D01*
X7487D01*
Y7139D01*
D02*
G37*
%LPD*%
G36*
X7700Y9000D02*
Y8800D01*
X7600Y8700D01*
X7320D01*
X7321Y8693D01*
X7320Y8690D01*
X7320D01*
Y8510D01*
X7358D01*
X7396Y8320D01*
X7380Y8300D01*
X7329D01*
X7350Y7950D01*
X7698D01*
X7713Y7925D01*
X7710Y7912D01*
Y7888D01*
X7716Y7865D01*
X7728Y7844D01*
X7744Y7828D01*
X7765Y7816D01*
X7788Y7810D01*
X7812D01*
X7835Y7816D01*
X7856Y7828D01*
X7872Y7844D01*
X7884Y7865D01*
X7890Y7888D01*
Y7912D01*
X7887Y7923D01*
X7907Y7943D01*
X8000Y7850D01*
Y7500D01*
X7950Y7450D01*
X7848Y7488D01*
Y7493D01*
X7836D01*
X7823Y7498D01*
Y7522D01*
X7819Y7540D01*
X7810Y7555D01*
X7787Y7577D01*
X7790Y7588D01*
Y7612D01*
X7784Y7635D01*
X7772Y7656D01*
X7756Y7672D01*
X7735Y7684D01*
X7712Y7690D01*
X7688D01*
X7665Y7684D01*
X7644Y7672D01*
X7628Y7656D01*
X7616Y7635D01*
X7610Y7612D01*
Y7605D01*
X7585Y7587D01*
X7550Y7600D01*
X7250D01*
Y7600D01*
X6645D01*
Y7781D01*
X6773Y7909D01*
X6787Y7905D01*
X6813D01*
X6837Y7911D01*
X6859Y7924D01*
X6876Y7941D01*
X6889Y7963D01*
X6895Y7987D01*
Y8013D01*
X6889Y8037D01*
X6877Y8057D01*
X7092Y8308D01*
X6900Y8500D01*
Y8900D01*
X7200D01*
X7300Y8800D01*
X7300Y8800D01*
X7300Y9000D01*
X7400Y9100D01*
X7600D01*
X7700Y9000D01*
D02*
G37*
G36*
X8037Y8796D02*
X7924Y8684D01*
X7915Y8669D01*
X7911Y8652D01*
Y8075D01*
X7823Y7987D01*
X7812Y7990D01*
X7788D01*
X7765Y7984D01*
X7744Y7972D01*
X7744Y7972D01*
X7736Y7969D01*
X7735Y7969D01*
X7729Y7969D01*
X7713Y7971D01*
X7710Y7972D01*
X7708Y7974D01*
X7706Y7974D01*
X7704Y7975D01*
X7701Y7975D01*
X7698Y7976D01*
X7374D01*
X7358Y8256D01*
X7375Y8274D01*
X7377Y8274D01*
X7380D01*
X7380Y8274D01*
X7382Y8274D01*
X7383Y8274D01*
X7386Y8275D01*
X7390Y8276D01*
X7391Y8277D01*
X7392Y8277D01*
X7395Y8280D01*
X7398Y8282D01*
X7399Y8283D01*
X7400Y8284D01*
X7416Y8303D01*
X7417Y8304D01*
X7418Y8305D01*
X7419Y8309D01*
X7421Y8312D01*
X7421Y8313D01*
X7421Y8315D01*
X7421Y8318D01*
X7422Y8322D01*
X7421Y8323D01*
X7421Y8325D01*
X7388Y8490D01*
X7405Y8510D01*
X7480D01*
Y8555D01*
X7552D01*
Y8507D01*
X7682D01*
X7700Y8507D01*
X7718Y8507D01*
X7765D01*
Y8600D01*
Y8693D01*
X7718D01*
X7700Y8693D01*
X7682Y8693D01*
X7663D01*
X7653Y8716D01*
X7718Y8782D01*
X7724Y8790D01*
X7726Y8800D01*
Y8820D01*
X8027D01*
X8037Y8796D01*
D02*
G37*
%LPC*%
G36*
X7270Y8690D02*
X7203D01*
Y8613D01*
X7270D01*
Y8690D01*
D02*
G37*
G36*
X7177D02*
X7110D01*
Y8613D01*
X7177D01*
Y8690D01*
D02*
G37*
G36*
X7270Y8587D02*
X7203D01*
Y8510D01*
X7270D01*
Y8515D01*
Y8587D01*
D02*
G37*
G36*
X7177D02*
X7110D01*
Y8510D01*
X7177D01*
Y8587D01*
D02*
G37*
G36*
X6813Y7845D02*
Y7763D01*
X6895D01*
X6889Y7787D01*
X6876Y7809D01*
X6859Y7826D01*
X6837Y7839D01*
X6813Y7845D01*
D02*
G37*
G36*
X6787D02*
X6763Y7839D01*
X6741Y7826D01*
X6724Y7809D01*
X6711Y7787D01*
X6705Y7763D01*
X6787D01*
Y7845D01*
D02*
G37*
G36*
X6895Y7737D02*
X6813D01*
Y7655D01*
X6837Y7661D01*
X6859Y7674D01*
X6876Y7691D01*
X6889Y7713D01*
X6895Y7737D01*
D02*
G37*
G36*
X6787D02*
X6705D01*
X6711Y7713D01*
X6724Y7691D01*
X6741Y7674D01*
X6763Y7661D01*
X6787Y7655D01*
Y7737D01*
D02*
G37*
G36*
X7790Y8693D02*
Y8613D01*
X7848D01*
Y8693D01*
X7790D01*
D02*
G37*
G36*
X7848Y8587D02*
X7790D01*
Y8507D01*
X7848D01*
Y8587D01*
D02*
G37*
G36*
X7713Y8439D02*
Y8363D01*
X7789D01*
X7783Y8384D01*
X7771Y8405D01*
X7755Y8421D01*
X7734Y8433D01*
X7713Y8439D01*
D02*
G37*
G36*
X7687D02*
X7666Y8433D01*
X7645Y8421D01*
X7629Y8405D01*
X7617Y8384D01*
X7611Y8363D01*
X7687D01*
Y8439D01*
D02*
G37*
G36*
X7789Y8337D02*
X7713D01*
Y8261D01*
X7734Y8267D01*
X7755Y8279D01*
X7771Y8295D01*
X7783Y8316D01*
X7789Y8337D01*
D02*
G37*
G36*
X7687D02*
X7611D01*
X7617Y8316D01*
X7629Y8295D01*
X7645Y8279D01*
X7666Y8267D01*
X7687Y8261D01*
Y8337D01*
D02*
G37*
%LPD*%
D18*
X8895Y7600D02*
D03*
X8255Y7854D02*
D03*
Y7346D02*
D03*
D19*
X7778Y7400D02*
D03*
X7622D02*
D03*
X7778Y8600D02*
D03*
X7622D02*
D03*
X9422Y7500D02*
D03*
X9578D02*
D03*
X9422Y8800D02*
D03*
X9578D02*
D03*
D20*
X7405Y7400D02*
D03*
X7195D02*
D03*
D21*
X7190Y8600D02*
D03*
X7400D02*
D03*
D22*
X8770Y8790D02*
D03*
Y8664D02*
D03*
Y8536D02*
D03*
Y8410D02*
D03*
X8230D02*
D03*
Y8536D02*
D03*
Y8664D02*
D03*
Y8790D02*
D03*
D31*
X9267Y7367D02*
X9312D01*
X9422Y7478D01*
X9250Y7350D02*
X9267Y7367D01*
X6800Y7750D02*
X7746D01*
X7190Y8140D02*
Y8573D01*
X10023Y7200D02*
X10219Y7397D01*
X7867Y7333D02*
X8000Y7200D01*
X10023D01*
X7151Y8101D02*
X7190Y8140D01*
X9422Y8778D02*
Y8800D01*
X9316Y8671D02*
X9422Y8778D01*
X9316Y8566D02*
Y8671D01*
X9300Y8550D02*
X9316Y8566D01*
X9422Y7478D02*
Y7500D01*
X9419Y7496D02*
X9422Y7500D01*
X8712Y7496D02*
X9419D01*
X8594Y7613D02*
X8712Y7496D01*
X8594Y7613D02*
Y7737D01*
X8477Y7854D02*
X8594Y7737D01*
X8255Y7854D02*
X8477D01*
X8278Y8664D02*
X8895Y8046D01*
Y7600D02*
Y8046D01*
X8100Y8250D02*
X8255Y8095D01*
Y7854D02*
Y8095D01*
X8182Y8410D02*
X8230D01*
X8117Y8344D02*
X8182Y8410D01*
X8117Y8267D02*
Y8344D01*
X8100Y8250D02*
X8117Y8267D01*
X7151Y8101D02*
Y8534D01*
X7190Y8573D01*
X6800Y7750D02*
X7705D01*
X7746D02*
X8150Y7346D01*
X7705Y7750D02*
X7867Y7588D01*
X7405Y7400D02*
X7500Y7305D01*
Y7050D02*
Y7305D01*
X7299Y7504D02*
X7541D01*
X7622Y7422D01*
Y7378D02*
Y7400D01*
X7195D02*
X7299Y7504D01*
X7622Y7400D02*
Y7422D01*
X7778Y7400D02*
Y7522D01*
X7700Y7600D02*
X7778Y7522D01*
X7867Y7333D02*
Y7588D01*
X6700Y7400D02*
X7195D01*
X7700Y8350D02*
Y8366D01*
X7778Y8443D01*
Y8600D01*
X10219Y7397D02*
Y7581D01*
X10100Y7700D02*
X10219Y7581D01*
X7190Y8573D02*
Y8600D01*
Y8573D02*
X7482Y8865D01*
X9000Y8200D02*
X9578Y7622D01*
Y7500D02*
Y7622D01*
X6800Y7750D02*
X7151Y8101D01*
X7482Y8865D02*
X8393D01*
X8467Y8790D01*
X8770D01*
X7482Y8865D02*
X7571Y8954D01*
X10100D01*
X8593Y8107D02*
X8600Y8100D01*
X8593Y8107D02*
Y8221D01*
X8278Y8536D02*
X8593Y8221D01*
X8230Y8536D02*
X8278D01*
X9578Y8778D02*
Y8800D01*
X9655Y8700D02*
X10100D01*
X9578Y8778D02*
X9655Y8700D01*
X10070Y7446D02*
X10100D01*
X10016Y7500D02*
X10070Y7446D01*
X9578Y7500D02*
X10016D01*
X8230Y8664D02*
X8278D01*
X8095Y8790D02*
X8230D01*
X7956Y8652D02*
X8095Y8790D01*
X7956Y8056D02*
Y8652D01*
X7800Y7900D02*
X7956Y8056D01*
X7400Y8600D02*
X7622D01*
X8150Y7346D02*
X8255D01*
X6600Y7500D02*
X6700Y7400D01*
X6600Y7500D02*
Y7800D01*
X6800Y8000D01*
D32*
X10100Y7446D02*
D03*
Y7700D02*
D03*
Y8954D02*
D03*
Y8700D02*
D03*
D33*
X6800Y7750D02*
D03*
Y8000D02*
D03*
D34*
Y8250D02*
D03*
D35*
X9250Y7350D02*
D03*
X9300Y8550D02*
D03*
X8100Y8250D02*
D03*
X7500Y7050D02*
D03*
X7700Y8350D02*
D03*
X8600Y8100D02*
D03*
X9000Y8200D02*
D03*
D36*
X7700Y7600D02*
D03*
X7800Y7900D02*
D03*
M02*
