G04*
G04 #@! TF.GenerationSoftware,Altium Limited,Altium Designer,25.2.1 (25)*
G04*
G04 Layer_Color=16711935*
%FSLAX42Y42*%
%MOMM*%
G71*
G04*
G04 #@! TF.SameCoordinates,54F93AE9-759C-433E-98B8-B0DEF80D149C*
G04*
G04*
G04 #@! TF.FilePolarity,Positive*
G04*
G01*
G75*
%ADD10C,0.20*%
%ADD14C,0.10*%
D10*
X8935Y7252D02*
Y7948D01*
X8206Y7252D02*
X8935D01*
X8206D02*
Y7948D01*
X8935D01*
X8301Y8350D02*
Y8850D01*
Y8350D02*
X8699D01*
Y8850D01*
X8301D02*
X8699D01*
D14*
X9975Y7723D02*
G03*
X10225Y7723I125J-150D01*
G01*
Y8677D02*
G03*
X9975Y8677I-125J150D01*
G01*
X9975Y7723D02*
X10225D01*
X7593Y7328D02*
X7807D01*
X7593Y7472D02*
X7807D01*
Y7328D02*
Y7472D01*
X7593Y7328D02*
Y7472D01*
X7400Y7338D02*
Y7462D01*
X7200Y7338D02*
X7400D01*
X7200D02*
Y7462D01*
X7275D01*
X7200D02*
X7400D01*
X7807Y8528D02*
Y8672D01*
X7593Y8528D02*
Y8672D01*
Y8528D02*
X7807D01*
X7593Y8672D02*
X7807D01*
X9975Y8677D02*
X10225D01*
X6555Y7625D02*
Y8375D01*
Y7625D02*
X7045D01*
X6555Y8375D02*
X7045D01*
Y7625D02*
Y8375D01*
X9393Y7428D02*
Y7572D01*
X9607Y7428D02*
Y7572D01*
X9393D02*
X9607D01*
X9393Y7428D02*
X9607D01*
X9393Y8728D02*
Y8872D01*
X9607Y8728D02*
Y8872D01*
X9393D02*
X9607D01*
X9393Y8728D02*
X9607D01*
M02*
