G04*
G04 #@! TF.GenerationSoftware,Altium Limited,Altium Designer,25.2.1 (25)*
G04*
G04 Layer_Color=32768*
%FSLAX42Y42*%
%MOMM*%
G71*
G04*
G04 #@! TF.SameCoordinates,54F93AE9-759C-433E-98B8-B0DEF80D149C*
G04*
G04*
G04 #@! TF.FilePolarity,Positive*
G04*
G01*
G75*
%ADD10C,0.20*%
%ADD14C,0.10*%
%ADD38C,0.05*%
D10*
X9070Y7242D02*
Y7958D01*
X8080Y7242D02*
X9070D01*
X8080D02*
Y7958D01*
X9070D01*
X8143Y8325D02*
Y8875D01*
Y8325D02*
X8857D01*
Y8875D01*
X8143D02*
X8857D01*
D14*
X7700Y7350D02*
Y7450D01*
X7650Y7400D02*
X7750D01*
X7300Y7375D02*
Y7425D01*
X7275Y7400D02*
X7325D01*
X7650Y8600D02*
X7750D01*
X7700Y8550D02*
Y8650D01*
X6800Y7950D02*
Y8050D01*
X6750Y8000D02*
X6850D01*
X9450Y7500D02*
X9550D01*
X9500Y7450D02*
Y7550D01*
X9450Y8800D02*
X9550D01*
X9500Y8750D02*
Y8850D01*
D38*
X9885Y7351D02*
Y7795D01*
X10315D01*
Y7351D02*
Y7795D01*
X9885Y7351D02*
X10315D01*
X10100Y7523D02*
Y7623D01*
X10050Y7573D02*
X10150D01*
X7565Y7315D02*
X7835D01*
X7565Y7485D02*
X7835D01*
Y7315D02*
Y7485D01*
X7565Y7315D02*
Y7485D01*
X7475Y7330D02*
Y7470D01*
X7125Y7330D02*
X7475D01*
X7125D02*
Y7470D01*
X7475D01*
Y8512D02*
Y8688D01*
X7115D02*
X7475D01*
X7115Y8512D02*
Y8688D01*
Y8512D02*
X7475D01*
X7835Y8515D02*
Y8685D01*
X7565Y8515D02*
Y8685D01*
Y8515D02*
X7835D01*
X7565Y8685D02*
X7835D01*
X10315Y8605D02*
Y9049D01*
X9885Y8605D02*
X10315D01*
X9885D02*
Y9049D01*
X10315D01*
X10100Y8777D02*
Y8877D01*
X10050Y8827D02*
X10150D01*
X6545Y8385D02*
X7055D01*
X6545Y7615D02*
X7055D01*
Y8385D01*
X6545Y7615D02*
Y8385D01*
X9365Y7415D02*
Y7585D01*
X9635Y7415D02*
Y7585D01*
X9365D02*
X9635D01*
X9365Y7415D02*
X9635D01*
X9365Y8715D02*
Y8885D01*
X9635Y8715D02*
Y8885D01*
X9365D02*
X9635D01*
X9365Y8715D02*
X9635D01*
M02*
