G04*
G04 #@! TF.GenerationSoftware,Altium Limited,Altium Designer,25.2.1 (25)*
G04*
G04 Layer_Physical_Order=2*
G04 Layer_Color=16711680*
%FSLAX42Y42*%
%MOMM*%
G71*
G04*
G04 #@! TF.SameCoordinates,54F93AE9-759C-433E-98B8-B0DEF80D149C*
G04*
G04*
G04 #@! TF.FilePolarity,Positive*
G04*
G01*
G75*
%ADD31C,0.38*%
%ADD32C,1.50*%
%ADD33C,1.40*%
%ADD34R,1.40X1.40*%
%ADD35C,1.27*%
%ADD36C,1.30*%
G36*
X10500Y9400D02*
Y7100D01*
X10400Y7000D01*
X7600D01*
X7585Y7025D01*
X7589Y7037D01*
X7411D01*
X7415Y7025D01*
X7400Y7000D01*
X6500D01*
X6400Y7100D01*
Y9400D01*
X6500Y9500D01*
X10400D01*
X10500Y9400D01*
D02*
G37*
%LPC*%
G36*
X10113Y9054D02*
X10087D01*
X10061Y9048D01*
X10038Y9034D01*
X10020Y9016D01*
X10006Y8993D01*
X10000Y8967D01*
Y8941D01*
X10006Y8915D01*
X10020Y8892D01*
X10038Y8874D01*
X10061Y8860D01*
X10087Y8854D01*
X10113D01*
X10139Y8860D01*
X10162Y8874D01*
X10180Y8892D01*
X10194Y8915D01*
X10200Y8941D01*
Y8967D01*
X10194Y8993D01*
X10180Y9016D01*
X10162Y9034D01*
X10139Y9048D01*
X10113Y9054D01*
D02*
G37*
G36*
Y8800D02*
X10087D01*
X10061Y8794D01*
X10038Y8780D01*
X10020Y8762D01*
X10006Y8739D01*
X10000Y8713D01*
Y8687D01*
X10006Y8661D01*
X10020Y8638D01*
X10038Y8620D01*
X10061Y8606D01*
X10087Y8600D01*
X10113D01*
X10139Y8606D01*
X10162Y8620D01*
X10180Y8638D01*
X10194Y8661D01*
X10200Y8687D01*
Y8713D01*
X10194Y8739D01*
X10180Y8762D01*
X10162Y8780D01*
X10139Y8794D01*
X10113Y8800D01*
D02*
G37*
G36*
X9313Y8639D02*
Y8563D01*
X9389D01*
X9383Y8584D01*
X9371Y8605D01*
X9355Y8621D01*
X9334Y8633D01*
X9313Y8639D01*
D02*
G37*
G36*
X9287D02*
X9266Y8633D01*
X9245Y8621D01*
X9229Y8605D01*
X9217Y8584D01*
X9211Y8563D01*
X9287D01*
Y8639D01*
D02*
G37*
G36*
X9389Y8537D02*
X9313D01*
Y8461D01*
X9334Y8467D01*
X9355Y8479D01*
X9371Y8495D01*
X9383Y8516D01*
X9389Y8537D01*
D02*
G37*
G36*
X9287D02*
X9211D01*
X9217Y8516D01*
X9229Y8495D01*
X9245Y8479D01*
X9266Y8467D01*
X9287Y8461D01*
Y8537D01*
D02*
G37*
G36*
X7713Y8439D02*
Y8363D01*
X7789D01*
X7783Y8384D01*
X7771Y8405D01*
X7755Y8421D01*
X7734Y8433D01*
X7713Y8439D01*
D02*
G37*
G36*
X7687D02*
X7666Y8433D01*
X7645Y8421D01*
X7629Y8405D01*
X7617Y8384D01*
X7611Y8363D01*
X7687D01*
Y8439D01*
D02*
G37*
G36*
X6895Y8345D02*
X6813D01*
Y8263D01*
X6895D01*
Y8345D01*
D02*
G37*
G36*
X6787D02*
X6705D01*
Y8263D01*
X6787D01*
Y8345D01*
D02*
G37*
G36*
X8113Y8339D02*
Y8263D01*
X8189D01*
X8183Y8284D01*
X8171Y8305D01*
X8155Y8321D01*
X8134Y8333D01*
X8113Y8339D01*
D02*
G37*
G36*
X8087D02*
X8066Y8333D01*
X8045Y8321D01*
X8029Y8305D01*
X8017Y8284D01*
X8011Y8263D01*
X8087D01*
Y8339D01*
D02*
G37*
G36*
X7789Y8337D02*
X7713D01*
Y8261D01*
X7734Y8267D01*
X7755Y8279D01*
X7771Y8295D01*
X7783Y8316D01*
X7789Y8337D01*
D02*
G37*
G36*
X7687D02*
X7611D01*
X7617Y8316D01*
X7629Y8295D01*
X7645Y8279D01*
X7666Y8267D01*
X7687Y8261D01*
Y8337D01*
D02*
G37*
G36*
X8189Y8237D02*
X8113D01*
Y8161D01*
X8134Y8167D01*
X8155Y8179D01*
X8171Y8195D01*
X8183Y8216D01*
X8189Y8237D01*
D02*
G37*
G36*
X8087D02*
X8011D01*
X8017Y8216D01*
X8029Y8195D01*
X8045Y8179D01*
X8066Y8167D01*
X8087Y8161D01*
Y8237D01*
D02*
G37*
G36*
X6895Y8237D02*
X6813D01*
Y8155D01*
X6895D01*
Y8237D01*
D02*
G37*
G36*
X6787D02*
X6705D01*
Y8155D01*
X6787D01*
Y8237D01*
D02*
G37*
G36*
X9012Y8289D02*
X8988D01*
X8966Y8283D01*
X8945Y8271D01*
X8929Y8255D01*
X8917Y8234D01*
X8911Y8212D01*
Y8188D01*
X8914Y8178D01*
X8881Y8145D01*
X8676D01*
X8671Y8155D01*
X8655Y8171D01*
X8634Y8183D01*
X8612Y8189D01*
X8588D01*
X8566Y8183D01*
X8545Y8171D01*
X8529Y8155D01*
X8517Y8134D01*
X8511Y8112D01*
Y8088D01*
X8517Y8066D01*
X8529Y8045D01*
X8545Y8029D01*
X8566Y8017D01*
X8588Y8011D01*
X8612D01*
X8634Y8017D01*
X8655Y8029D01*
X8671Y8045D01*
X8676Y8055D01*
X8900D01*
X8917Y8058D01*
X8932Y8068D01*
X8978Y8114D01*
X8988Y8111D01*
X9012D01*
X9034Y8117D01*
X9055Y8129D01*
X9071Y8145D01*
X9083Y8166D01*
X9089Y8188D01*
Y8212D01*
X9083Y8234D01*
X9071Y8255D01*
X9055Y8271D01*
X9034Y8283D01*
X9012Y8289D01*
D02*
G37*
G36*
X6813Y8095D02*
X6787D01*
X6763Y8089D01*
X6741Y8076D01*
X6724Y8059D01*
X6711Y8037D01*
X6705Y8013D01*
Y7987D01*
X6711Y7963D01*
X6724Y7941D01*
X6741Y7924D01*
X6763Y7911D01*
X6787Y7905D01*
X6813D01*
X6837Y7911D01*
X6859Y7924D01*
X6876Y7941D01*
X6889Y7963D01*
X6895Y7987D01*
Y8013D01*
X6889Y8037D01*
X6876Y8059D01*
X6859Y8076D01*
X6837Y8089D01*
X6813Y8095D01*
D02*
G37*
G36*
X7812Y7990D02*
X7788D01*
X7765Y7984D01*
X7744Y7972D01*
X7728Y7956D01*
X7716Y7935D01*
X7710Y7912D01*
Y7888D01*
X7713Y7877D01*
X7668Y7832D01*
X7658Y7817D01*
X7655Y7800D01*
Y7678D01*
X7644Y7672D01*
X7628Y7656D01*
X7616Y7635D01*
X7610Y7612D01*
Y7588D01*
X7616Y7565D01*
X7628Y7544D01*
X7644Y7528D01*
X7665Y7516D01*
X7688Y7510D01*
X7712D01*
X7735Y7516D01*
X7756Y7528D01*
X7772Y7544D01*
X7784Y7565D01*
X7790Y7588D01*
Y7612D01*
X7784Y7635D01*
X7772Y7656D01*
X7756Y7672D01*
X7745Y7678D01*
Y7781D01*
X7777Y7813D01*
X7788Y7810D01*
X7812D01*
X7835Y7816D01*
X7856Y7828D01*
X7872Y7844D01*
X7884Y7865D01*
X7890Y7888D01*
Y7912D01*
X7884Y7935D01*
X7872Y7956D01*
X7856Y7972D01*
X7835Y7984D01*
X7812Y7990D01*
D02*
G37*
G36*
X6813Y7845D02*
X6787D01*
X6763Y7839D01*
X6741Y7826D01*
X6724Y7809D01*
X6711Y7787D01*
X6705Y7763D01*
Y7737D01*
X6711Y7713D01*
X6724Y7691D01*
X6741Y7674D01*
X6763Y7661D01*
X6787Y7655D01*
X6813D01*
X6837Y7661D01*
X6859Y7674D01*
X6876Y7691D01*
X6889Y7713D01*
X6895Y7737D01*
Y7763D01*
X6889Y7787D01*
X6876Y7809D01*
X6859Y7826D01*
X6837Y7839D01*
X6813Y7845D01*
D02*
G37*
G36*
X10113Y7800D02*
X10087D01*
X10061Y7794D01*
X10038Y7780D01*
X10020Y7762D01*
X10006Y7739D01*
X10000Y7713D01*
Y7687D01*
X10006Y7661D01*
X10020Y7638D01*
X10038Y7620D01*
X10061Y7606D01*
X10087Y7600D01*
X10113D01*
X10139Y7606D01*
X10162Y7620D01*
X10180Y7638D01*
X10194Y7661D01*
X10200Y7687D01*
Y7713D01*
X10194Y7739D01*
X10180Y7762D01*
X10162Y7780D01*
X10139Y7794D01*
X10113Y7800D01*
D02*
G37*
G36*
X9263Y7439D02*
Y7363D01*
X9339D01*
X9333Y7384D01*
X9321Y7405D01*
X9305Y7421D01*
X9284Y7433D01*
X9263Y7439D01*
D02*
G37*
G36*
X9237D02*
X9216Y7433D01*
X9195Y7421D01*
X9179Y7405D01*
X9167Y7384D01*
X9161Y7363D01*
X9237D01*
Y7439D01*
D02*
G37*
G36*
X10113Y7546D02*
X10087D01*
X10061Y7540D01*
X10038Y7526D01*
X10020Y7508D01*
X10006Y7485D01*
X10000Y7459D01*
Y7433D01*
X10006Y7407D01*
X10020Y7384D01*
X10038Y7366D01*
X10061Y7352D01*
X10087Y7346D01*
X10113D01*
X10139Y7352D01*
X10162Y7366D01*
X10180Y7384D01*
X10194Y7407D01*
X10200Y7433D01*
Y7459D01*
X10194Y7485D01*
X10180Y7508D01*
X10162Y7526D01*
X10139Y7540D01*
X10113Y7546D01*
D02*
G37*
G36*
X9339Y7337D02*
X9263D01*
Y7261D01*
X9284Y7267D01*
X9305Y7279D01*
X9321Y7295D01*
X9333Y7316D01*
X9339Y7337D01*
D02*
G37*
G36*
X9237D02*
X9161D01*
X9167Y7316D01*
X9179Y7295D01*
X9195Y7279D01*
X9216Y7267D01*
X9237Y7261D01*
Y7337D01*
D02*
G37*
G36*
X7513Y7139D02*
Y7063D01*
X7589D01*
X7583Y7084D01*
X7571Y7105D01*
X7555Y7121D01*
X7534Y7133D01*
X7513Y7139D01*
D02*
G37*
G36*
X7487D02*
X7466Y7133D01*
X7445Y7121D01*
X7429Y7105D01*
X7417Y7084D01*
X7411Y7063D01*
X7487D01*
Y7139D01*
D02*
G37*
%LPD*%
D31*
X9250Y7350D02*
Y8476D01*
X9300Y8526D02*
Y8550D01*
X9250Y8476D02*
X9300Y8526D01*
X8000Y8350D02*
X8100Y8250D01*
X7700Y8350D02*
X8000D01*
X7500Y7050D02*
Y7690D01*
X7691Y7880D01*
Y8341D01*
X7700Y8350D01*
Y7800D02*
X7800Y7900D01*
X7700Y7600D02*
Y7800D01*
X7600Y8250D02*
X7700Y8350D01*
X6800Y8250D02*
X7600D01*
X8600Y8100D02*
X8900D01*
X9000Y8200D01*
D32*
X10100Y7446D02*
D03*
Y7700D02*
D03*
Y8954D02*
D03*
Y8700D02*
D03*
D33*
X6800Y7750D02*
D03*
Y8000D02*
D03*
D34*
Y8250D02*
D03*
D35*
X9250Y7350D02*
D03*
X9300Y8550D02*
D03*
X8100Y8250D02*
D03*
X7500Y7050D02*
D03*
X7700Y8350D02*
D03*
X8600Y8100D02*
D03*
X9000Y8200D02*
D03*
D36*
X7700Y7600D02*
D03*
X7800Y7900D02*
D03*
M02*
